:FULLY-SPECIFIED
:FORCE-ALL-JOINTS-BE-3DOF
:DEGREES
476
root 3.58739 16.218 -7.06552 3.25148 61.2748 -9.99023
lfemur -43.2864 3.135 -21.3034
ltibia 50.4647 -0 0
lfoot -20.2569 -2.96506 0.0232608
ltoes 18.595 -0 0
rfemur -19.1014 0.792963 13.701
rtibia 56.111 -0 0
rfoot 28.4021 -0.954376 -0.833125
rtoes -34.4514 0 0
lowerback 1.0124 -0.271633 2.81423
upperback -0.944733 -0.303114 1.63803
thorax -1.53078 -0.169347 0.130627
lowerneck -8.86105 -6.5898 0.815689
upperneck 4.31676 -8.95253 0.789013
head 2.93695 -4.40312 -0.344477
lclavicle 7.0817e-015 -1.86858e-014 0
lhumerus -48.3469 -26.629 109.278
lradius 53.4832 -0 0
lwrist 1.62611 0 0
lhand -11.946 -8.6982 0.734328
lfingers 7.12502 -0 0
lthumb 14.0743 20.3027 0.551786
rclavicle 7.0817e-015 -1.86858e-014 0
rhumerus -54.2903 7.56008 -85.4865
rradius 66.3686 -0 0
rwrist 18.2867 0 0
rhand -22.576 -26.6178 0.672187
rfingers 7.12502 -0 0
rthumb 3.83982 -56.22 0.700745
477
root 3.66088 16.2309 -7.01348 3.15438 62.4464 -9.76322
lfemur -42.4302 1.91829 -21.308
ltibia 49.9716 -0 0
lfoot -20.352 -3.18465 0.0309651
ltoes 18.8562 -0 0
rfemur -21.1303 1.07409 13.742
rtibia 57.4169 -0 0
rfoot 27.5778 -0.308919 -0.898095
rtoes -33.2492 0 0
lowerback 1.15506 -0.305402 2.57327
upperback -0.927787 -0.353294 1.56692
thorax -1.59207 -0.193164 0.195533
lowerneck -8.8936 -6.70778 0.705765
upperneck 4.45403 -9.10345 0.81072
head 2.99955 -4.47735 -0.33084
lclavicle 7.0817e-015 -1.86858e-014 0
lhumerus -48.4187 -26.973 109.636
lradius 53.5887 -0 0
lwrist 1.61086 0 0
lhand -10.735 -8.17812 0.791723
lfingers 7.12502 -0 0
lthumb 15.2366 20.6976 0.596708
rclavicle 7.0817e-015 -1.86858e-014 0
rhumerus -54.0627 8.95927 -86.2825
rradius 66.9751 -0 0
rwrist 19.3122 0 0
rhand -21.4637 -26.0848 0.719751
rfingers 7.12502 -0 0
rthumb 4.91287 -55.6407 0.750032
478
root 3.73437 16.2438 -6.96144 3.05908 63.6014 -9.52838
lfemur -41.5473 0.673028 -21.307
ltibia 49.4794 -0 0
lfoot -20.4598 -3.41396 0.0387028
ltoes 19.0881 -0 0
rfemur -23.2188 1.3706 13.7618
rtibia 58.7399 -0 0
rfoot 26.6911 0.351185 -0.952095
rtoes -32.0291 0 0
lowerback 1.30774 -0.338029 2.32727
upperback -0.907369 -0.402593 1.49402
thorax -1.65532 -0.216427 0.261365
lowerneck -8.92503 -6.82353 0.597111
upperneck 4.59577 -9.25161 0.8328
head 3.06389 -4.55012 -0.317436
lclavicle 7.0817e-015 -1.86858e-014 0
lhumerus -48.4886 -27.3293 109.996
lradius 53.6974 -0 0
lwrist 1.6053 0 0
lhand -9.49636 -7.63455 0.837933
lfingers 7.12502 -0 0
lthumb 16.4253 21.1131 0.633363
rclavicle 7.0817e-015 -1.86858e-014 0
rhumerus -53.8324 10.3926 -87.1
rradius 67.6126 -0 0
rwrist 20.349 0 0
rhand -20.3326 -25.539 0.75763
rfingers 7.12502 -0 0
rthumb 6.00402 -55.0475 0.789143
479
root 3.80787 16.2567 -6.90941 2.96592 64.7419 -9.28668
lfemur -40.6433 -0.593404 -21.3044
ltibia 48.9921 -0 0
lfoot -20.5795 -3.65043 0.0462427
ltoes 19.2907 -0 0
rfemur -25.3542 1.67919 13.7586
rtibia 60.0717 -0 0
rfoot 25.751 1.02251 -0.993811
rtoes -30.7987 0 0
lowerback 1.46967 -0.369245 2.07773
upperback -0.88344 -0.450631 1.42027
thorax -1.72007 -0.238951 0.328234
lowerneck -8.9551 -6.93762 0.489463
upperneck 4.74166 -9.3977 0.855527
head 3.1298 -4.62176 -0.304187
lclavicle 7.0817e-015 -1.86858e-014 0
lhumerus -48.5565 -27.695 110.357
lradius 53.809 -0 0
lwrist 1.60988 0 0
lhand -8.23867 -7.07226 0.871691
lfingers 7.12502 -0 0
lthumb 17.6322 21.5454 0.660736
rclavicle 7.0817e-015 -1.86858e-014 0
rhumerus -53.598 11.8518 -87.9329
rradius 68.2808 -0 0
rwrist 21.3858 0 0
rhand -19.1899 -24.9837 0.784978
rfingers 7.12502 -0 0
rthumb 7.10643 -54.4443 0.817203
